<?xml version="1.0" encoding="UTF-8"?><svg xmlns="http://www.w3.org/2000/svg" xmlns:xlink="http://www.w3.org/1999/xlink" width="375" zoomAndPan="magnify" viewBox="0 0 375 374.999991" height="374.999991" preserveAspectRatio="xMidYMid meet" version="1.0"><defs><clipPath id="clip-0"><path d="M 0 0 L 373.5 0 L 373.5 374.808594 L 0 374.808594 Z M 0 0 " clip-rule="nonzero"/></clipPath></defs><g clip-path="url(#clip-0)"><path fill="rgb(83.529663%, 92.549133%, 76.078796%)" d="M 259.945312 368.871094 C 290.398438 385.460938 355.714844 366.847656 368.683594 296.136719 C 382.019531 223.4375 344.101562 221.519531 350.71875 195.070312 C 377.28125 155.667969 382.019531 105.382812 354.5 75.109375 C 286.421875 4.269531 269.398438 89.277344 212.664062 37.328125 C 189.730469 14.414062 154.984375 -12.734375 104.871094 6.15625 C 34.015625 32.867188 50.972656 88.609375 50.972656 128.949219 C 50.972656 143.15625 5.808594 169.859375 0.859375 206.40625 C -5.382812 252.484375 23.550781 313.140625 50.972656 333.921875 C 94.46875 383.039062 161.605469 371.703125 191.863281 354.699219 C 217.84375 340.101562 239.140625 357.535156 259.945312 368.871094 Z M 259.945312 368.871094 " fill-opacity="1" fill-rule="nonzero"/></g></svg>